<?xml version="1.0"?>
<svg xmlns="http://www.w3.org/2000/svg" xmlns:xlink="http://www.w3.org/1999/xlink" id="GD001" viewBox="0 0 512 512" width="512" height="512"><defs><linearGradient id="New_Gradient_Swatch_2" x1="256" y1="27.673" x2="256" y2="432.916" gradientUnits="userSpaceOnUse"><stop offset="0" stop-color="#fc5c7d"/><stop offset="0.129" stop-color="#f35e85"/><stop offset="0.343" stop-color="#d9659b"/><stop offset="0.616" stop-color="#b070bf"/><stop offset="0.934" stop-color="#777ff0"/><stop offset="1" stop-color="#6a82fb"/></linearGradient><linearGradient id="New_Gradient_Swatch_2-2" x1="416" y1="27.673" x2="416" y2="432.916" xlink:href="#New_Gradient_Swatch_2"/><linearGradient id="New_Gradient_Swatch_2-3" x1="96" y1="27.673" x2="96" y2="432.916" xlink:href="#New_Gradient_Swatch_2"/></defs><path d="M360,448V424a8,8,0,0,0-1.446-4.588l-54.882-78.4L293.4,264H304V248H291.271l-2.134-16H296a8,8,0,0,0,7.761-6.06l16-64A8,8,0,0,0,312,152h-9.376A23.992,23.992,0,0,0,280,120V104h16a8,8,0,0,0,8-8V64a8,8,0,0,0-8-8H282.246l5.515-22.06a8,8,0,0,0-2.1-7.6C284.6,25.284,274.772,16,256,16s-28.6,9.284-29.657,10.343a8,8,0,0,0-2.1,7.6L229.754,56H216a8,8,0,0,0-8,8V96a8,8,0,0,0,8,8h16v16a23.992,23.992,0,0,0-22.624,32H200a8,8,0,0,0-7.761,9.94l16,64A8,8,0,0,0,216,232h6.863l-2.134,16H208v16h10.6l-10.268,77.01-54.882,78.4A8,8,0,0,0,152,424v24a24,24,0,0,0,0,48H360a24,24,0,0,0,0-48ZM240,88H224V72h16a8,8,0,0,0,7.761-9.94L241.1,35.4a34.43,34.43,0,0,1,29.81-.007l-6.667,26.67A8,8,0,0,0,272,72h16V88H272a8,8,0,0,0-8,8v24H248V96A8,8,0,0,0,240,88Zm-16,56a8.009,8.009,0,0,1,8-8h48a8,8,0,0,1,0,16H232A8.009,8.009,0,0,1,224,144Zm-13.754,24h91.508l-12,48H222.246ZM239,232H273l2.133,16H236.871Zm-16.45,116.588a8,8,0,0,0,1.376-3.53L234.737,264h42.526l10.807,81.058a8,8,0,0,0,1.376,3.53L336.635,416H175.365ZM168,432H344v16H168Zm192,48H152a8,8,0,0,1,0-16H360a8,8,0,0,1,0,16Z" style="fill:url(#New_Gradient_Swatch_2)"/><path d="M472,448V424a8,8,0,0,0-1.854-5.121L431.6,372.622,421.8,304H432V288H419.51l-2.536-17.747a23.983,23.983,0,0,0,5.436-41.432,48,48,0,1,0-76.82,0,23.983,23.983,0,0,0,5.436,41.432L348.49,288H336v16h10.2l-10.124,70.868,15.838,2.264L362.367,304h43.266l10.448,73.132a7.987,7.987,0,0,0,1.773,3.989L446.92,416H376v16h80v16H400v16h72a8,8,0,0,1,0,16H400v16h72a24,24,0,0,0,0-48ZM360,256a8,8,0,0,1,0-16h48a8,8,0,0,1,0,16Zm24-88a32.036,32.036,0,0,1,32,32,31.709,31.709,0,0,1-10.85,24h-42.3A31.709,31.709,0,0,1,352,200,32.036,32.036,0,0,1,384,168ZM364.653,288l2.285-16h34.124l2.285,16Z" style="fill:url(#New_Gradient_Swatch_2-2)"/><path d="M56,432h80V416H65.08l29.066-34.879a7.987,7.987,0,0,0,1.773-3.989L106.367,304h43.266l10.448,73.132,15.838-2.264L165.8,304H176V288H163.51l-2.536-17.747a23.983,23.983,0,0,0,5.436-41.432,48,48,0,1,0-76.82,0,23.983,23.983,0,0,0,5.436,41.432L92.49,288H80v16h10.2l-9.8,68.622L41.854,418.879A8,8,0,0,0,40,424v24a24,24,0,0,0,0,48h72V480H40a8,8,0,0,1,0-16h72V448H56Zm48-176a8,8,0,0,1,0-16h48a8,8,0,0,1,0,16Zm24-88a32.036,32.036,0,0,1,32,32,31.709,31.709,0,0,1-10.85,24h-42.3A31.709,31.709,0,0,1,96,200,32.036,32.036,0,0,1,128,168ZM110.938,272h34.124l2.285,16H108.653Z" style="fill:url(#New_Gradient_Swatch_2-3)"/></svg>
